Coordinates
version=1
nRows=41
nColumns=38
inDegrees=no

Units are S.I. units (second, meters, Newtons, ...)
If the header above contains a line with 'inDegrees', this indicates whether rotational values are in degrees (yes) or radians (no).

endheader
time	pelvis_tilt	pelvis_list	pelvis_rotation	pelvis_tx	pelvis_ty	pelvis_tz	hip_flexion_r	hip_adduction_r	hip_rotation_r	knee_angle_r	ankle_angle_r	subtalar_angle_r	mtp_angle_r	hip_flexion_l	hip_adduction_l	hip_rotation_l	knee_angle_l	ankle_angle_l	subtalar_angle_l	mtp_angle_l	lumbar_extension	lumbar_bending	lumbar_rotation	arm_flex_r	arm_add_r	arm_rot_r	elbow_flex_r	pro_sup_r	wrist_flex_r	wrist_dev_r	arm_flex_l	arm_add_l	arm_rot_l	elbow_flex_l	pro_sup_l	wrist_flex_l	wrist_dev_l
1.83	0.0274874	1.33713	1.54594	0.802345	1.45066	1.04154	0.559366	-0.0674519	-0.0458233	1.17604	-0.193512	0	0	0.236404	-0.0271027	-0.304124	0.160043	-0.141726	0	0	0.141994	-0.0218088	0.060776	-0.195484	-0.283073	0.222685	0.579066	1.44125	0	0	-0.216497	-0.151152	-0.550908	0.388429	1.04687	0	0
1.84	0.0520781	1.33587	1.52429	0.801298	1.46111	1.04167	0.574654	-0.0621537	-0.0564247	1.15164	-0.178837	0	0	0.222429	-0.030897	-0.303613	0.151154	-0.139	0	0	0.141879	-0.0151542	0.0540311	-0.199433	-0.278518	0.212597	0.57023	1.43832	0	0	-0.218008	-0.151461	-0.551412	0.388818	1.05572	0	0
1.85	0.0765448	1.33466	1.50316	0.800281	1.47155	1.0416	0.588745	-0.0574724	-0.0677824	1.12368	-0.165192	0	0	0.208518	-0.0348002	-0.301842	0.142251	-0.136117	0	0	0.141554	-0.00870182	0.0474358	-0.202627	-0.274135	0.203667	0.560276	1.4329	0	0	-0.218445	-0.151143	-0.553868	0.389615	1.06001	0	0
1.86	0.0986409	1.33354	1.48427	0.799256	1.48197	1.04135	0.601668	-0.053672	-0.0795912	1.09207	-0.152746	0	0	0.194347	-0.0379743	-0.300458	0.132994	-0.133433	0	0	0.140897	-0.00267973	0.0411509	-0.204632	-0.270092	0.196493	0.548874	1.42618	0	0	-0.217758	-0.150094	-0.558272	0.390274	1.06019	0	0
1.87	0.118622	1.33284	1.46727	0.798256	1.49235	1.041	0.612692	-0.0505654	-0.0919429	1.05628	-0.141276	0	0	0.179664	-0.0405066	-0.299992	0.124152	-0.130714	0	0	0.139318	0.00302897	0.0351909	-0.205413	-0.266489	0.190901	0.53638	1.4182	0	0	-0.216269	-0.149404	-0.561382	0.389934	1.06031	0	0
1.88	0.137354	1.33226	1.45259	0.797299	1.50279	1.04052	0.621553	-0.0480722	-0.105233	1.01597	-0.128669	0	0	0.164782	-0.0425326	-0.297588	0.115521	-0.12745	0	0	0.140058	0.00776695	0.0219577	-0.195291	-0.27827	0.259287	0.520025	1.32448	0	0	-0.22654	-0.158081	-0.504625	0.394357	0.996312	0	0
1.89	0.155792	1.33277	1.43845	0.796427	1.51324	1.03998	0.627428	-0.0455124	-0.118423	0.971222	-0.118574	0	0	0.148913	-0.0445807	-0.295509	0.107312	-0.123947	0	0	0.136592	0.0124537	0.0159827	-0.194748	-0.272437	0.250062	0.504076	1.32311	0	0	-0.221717	-0.155972	-0.522482	0.39197	1.01266	0	0
1.9	0.17013	1.33206	1.42765	0.795652	1.52379	1.03917	0.633025	-0.0426889	-0.129107	0.922377	-0.112497	0	0	0.134705	-0.0462156	-0.295507	0.100007	-0.121895	0	0	0.134768	0.0168403	0.0120876	-0.196296	-0.26569	0.233467	0.489321	1.3304	0	0	-0.217966	-0.157693	-0.516711	0.389237	1.00692	0	0
1.91	0.183716	1.332	1.41755	0.79498	1.53436	1.03832	0.635924	-0.0395251	-0.138494	0.868713	-0.107346	0	0	0.120217	-0.047882	-0.295899	0.0934961	-0.118756	0	0	0.132239	0.0207383	0.00764579	-0.195013	-0.260117	0.225883	0.471993	1.32889	0	0	-0.213135	-0.157939	-0.521609	0.386358	1.01012	0	0
1.92	0.195938	1.33153	1.40857	0.794479	1.5449	1.03732	0.637322	-0.0358059	-0.146248	0.80986	-0.105351	0	0	0.107153	-0.0499708	-0.297094	0.0890487	-0.11548	0	0	0.130102	0.0244989	0.00348208	-0.192683	-0.255299	0.222438	0.453811	1.32664	0	0	-0.207766	-0.158745	-0.524948	0.382881	1.01229	0	0
1.93	0.207445	1.33128	1.40037	0.794108	1.55546	1.03622	0.635873	-0.0308107	-0.152323	0.743711	-0.106699	0	0	0.0947811	-0.0524609	-0.299571	0.0865792	-0.110968	0	0	0.127764	0.0279015	-0.000649744	-0.189158	-0.250779	0.223085	0.434402	1.3239	0	0	-0.201897	-0.159421	-0.529157	0.379887	1.01229	0	0
1.94	0.214142	1.33093	1.39641	0.793772	1.56613	1.03497	0.63294	-0.0260926	-0.156787	0.673534	-0.10848	0	0	0.0828198	-0.0538124	-0.300618	0.0847422	-0.107187	0	0	0.125844	0.0301011	-0.00322368	-0.186708	-0.246918	0.225509	0.416674	1.32092	0	0	-0.195377	-0.158555	-0.537091	0.379155	1.00506	0	0
1.95	0.220024	1.33149	1.3923	0.793553	1.57691	1.03379	0.626082	-0.0201503	-0.158462	0.595684	-0.114779	0	0	0.0697688	-0.0548235	-0.300769	0.0831771	-0.102342	0	0	0.122852	0.0321765	-0.00591698	-0.181528	-0.243382	0.233444	0.395952	1.31742	0	0	-0.189298	-0.158428	-0.54241	0.37764	0.999877	0	0
1.96	0.222349	1.33117	1.39086	0.793506	1.58788	1.03243	0.617463	-0.0132532	-0.15681	0.511046	-0.126081	0	0	0.0583136	-0.0554974	-0.301488	0.0835964	-0.0962702	0	0	0.123461	0.0333346	-0.0136434	-0.167714	-0.25467	0.339594	0.374129	1.21398	0	0	-0.197099	-0.169445	-0.475176	0.383164	0.923082	0	0
1.97	0.221843	1.33135	1.39129	0.793581	1.59895	1.03095	0.605759	-0.00602938	-0.149655	0.42052	-0.14124	0	0	0.0467485	-0.0555706	-0.304417	0.0851842	-0.0903238	0	0	0.120457	0.0342981	-0.0126263	-0.165448	-0.250669	0.343555	0.357334	1.22513	0	0	-0.189689	-0.167591	-0.495557	0.382274	0.941478	0	0
1.98	0.212034	1.33041	1.40082	0.793697	1.61014	1.02916	0.594233	-0.000815994	-0.139467	0.329312	-0.149306	0	0	0.0361026	-0.0532164	-0.306295	0.0850479	-0.0874868	0	0	0.118933	0.03317	-0.00979061	-0.166518	-0.247043	0.340625	0.345593	1.24167	0	0	-0.184727	-0.170489	-0.487677	0.382266	0.9372	0	0
1.99	0.196212	1.33002	1.41579	0.7939	1.62153	1.02729	0.58141	0.0029448	-0.126435	0.239034	-0.165473	0	0	0.0253818	-0.049347	-0.30984	0.0861047	-0.0839259	0	0	0.117654	0.0301701	-0.00768626	-0.166256	-0.244738	0.348304	0.333802	1.25451	0	0	-0.181222	-0.171313	-0.492922	0.384534	0.942413	0	0
2	0.176747	1.3295	1.43406	0.794221	1.63315	1.02528	0.569458	0.00520772	-0.113415	0.155763	-0.18267	0	0	0.0149779	-0.0447324	-0.31475	0.0886726	-0.080246	0	0	0.11712	0.0262351	-0.00551411	-0.166776	-0.243489	0.359086	0.324148	1.26795	0	0	-0.179789	-0.172125	-0.498172	0.389195	0.946807	0	0
2.01	0.156875	1.32905	1.45299	0.79464	1.64503	1.02319	0.558957	0.0060678	-0.102075	0.0823414	-0.199191	0	0	0.00586921	-0.0408768	-0.320496	0.0944685	-0.0755846	0	0	0.117052	0.021919	-0.00395848	-0.167788	-0.242994	0.372021	0.316101	1.28223	0	0	-0.180311	-0.17299	-0.503156	0.395879	0.950612	0	0
2.02	0.137959	1.32873	1.47111	0.795122	1.65712	1.02114	0.550793	0.00633078	-0.0944177	0.0213518	-0.21388	0	0	-0.00204253	-0.0380212	-0.326528	0.103542	-0.0697484	0	0	0.117402	0.0177831	-0.00290867	-0.169002	-0.243227	0.386348	0.309196	1.29723	0	0	-0.181685	-0.173635	-0.508832	0.402805	0.952899	0	0
2.03	0.122233	1.32809	1.48629	0.795656	1.66939	1.01919	0.549489	0.00675481	-0.100947	0	-0.22123	0	0	-0.00831746	-0.0368757	-0.333382	0.116329	-0.0621517	0	0	0.120359	0.0144763	-0.00638217	-0.164194	-0.251442	0.467396	0.301427	1.24418	0	0	-0.193589	-0.184902	-0.450069	0.413297	0.887108	0	0
2.04	0.115666	1.32964	1.49216	0.796213	1.68183	1.01757	0.549307	0.00919474	-0.115598	0	-0.212689	0	0	-0.0139424	-0.0401782	-0.349594	0.138149	-0.0513732	0	0	0.118851	0.0135263	-0.00618116	-0.164448	-0.248463	0.456029	0.290199	1.30156	0	0	-0.190529	-0.176571	-0.505247	0.416403	0.940635	0	0
2.05	0.109743	1.33005	1.49772	0.796845	1.69438	1.01611	0.549088	0.0113604	-0.119997	0	-0.209301	0	0	-0.0197937	-0.0424312	-0.352645	0.154279	-0.049694	0	0	0.118301	0.0134923	-0.00361403	-0.166809	-0.25041	0.463013	0.286172	1.30672	0	0	-0.190205	-0.178163	-0.502709	0.418268	0.940847	0	0
2.06	0.110002	1.33162	1.49701	0.797493	1.70715	1.01496	0.547591	0.0146239	-0.119202	0	-0.20458	0	0	-0.0247299	-0.0476477	-0.360448	0.176475	-0.0473719	0	0	0.116661	0.0152922	-0.00149556	-0.16857	-0.253491	0.472028	0.282341	1.31095	0	0	-0.190388	-0.179633	-0.498025	0.419508	0.939059	0	0
2.07	0.113138	1.33283	1.49356	0.79811	1.72014	1.01403	0.546724	0.018208	-0.113291	0	-0.203986	0	0	-0.0297534	-0.0527214	-0.361228	0.196586	-0.0489312	0	0	0.115961	0.0183047	-6.11887e-06	-0.170504	-0.257477	0.479548	0.279337	1.30774	0	0	-0.191386	-0.181757	-0.487424	0.41927	0.930482	0	0
2.08	0.130571	1.33991	1.47456	0.798756	1.73347	1.01373	0.53869	0.025353	-0.104526	0	-0.200048	0	0	-0.0372315	-0.0648277	-0.382662	0.230562	-0.0471321	0	0	0.107066	0.0247723	0.00271322	-0.171418	-0.263542	0.486232	0.278565	1.30778	0	0	-0.192139	-0.182573	-0.480683	0.420556	0.93407	0	0
2.09	0.141088	1.34336	1.46391	0.799285	1.74719	1.01328	0.536892	0.0298693	-0.0992076	0.022354	-0.201224	0	0	-0.0431591	-0.0720659	-0.383825	0.255181	-0.0491252	0	0	0.105892	0.0296107	0.00257244	-0.17392	-0.26691	0.476237	0.274528	1.319	0	0	-0.194229	-0.180823	-0.489712	0.419209	0.947988	0	0
2.1	0.162646	1.35073	1.44343	0.799699	1.76135	1.01328	0.533267	0.0362693	-0.109455	0.0681715	-0.193073	0	0	-0.051396	-0.0830702	-0.390227	0.286145	-0.0532959	0	0	0.0993344	0.0365618	0.00210295	-0.176678	-0.27236	0.468757	0.273582	1.31944	0	0	-0.196332	-0.179562	-0.492309	0.41875	0.956222	0	0
2.11	0.183957	1.35851	1.42522	0.800031	1.77597	1.01328	0.525606	0.0416806	-0.117746	0.106179	-0.18647	0	0	-0.0589143	-0.0939565	-0.3933	0.319492	-0.0612909	0	0	0.0937897	0.0426481	-0.00179566	-0.178839	-0.28181	0.489249	0.275926	1.28112	0	0	-0.205437	-0.18511	-0.455386	0.422703	0.918046	0	0
2.12	0.206423	1.36416	1.40633	0.800394	1.7909	1.01311	0.514767	0.0482487	-0.117628	0.125649	-0.203463	0	0	-0.0629583	-0.105602	-0.39397	0.35571	-0.0732743	0	0	0.0910962	0.0490318	-0.00241694	-0.189211	-0.284051	0.434314	0.280421	1.31352	0	0	-0.203233	-0.176241	-0.504576	0.418676	0.971219	0	0
2.13	0.225432	1.36494	1.39098	0.80098	1.80597	1.01262	0.505756	0.0553042	-0.110622	0.129458	-0.235152	0	0	-0.0596292	-0.117429	-0.388907	0.396102	-0.084781	0	0	0.0968107	0.0552024	-0.00650365	-0.196097	-0.289758	0.423043	0.281935	1.30211	0	0	-0.210656	-0.177348	-0.500049	0.416546	0.970633	0	0
2.14	0.241916	1.36254	1.37781	0.801736	1.82098	1.01208	0.498658	0.0620412	-0.103779	0.125466	-0.2769	0	0	-0.0504409	-0.129391	-0.378803	0.44112	-0.100323	0	0	0.107345	0.0614321	-0.0101628	-0.203288	-0.295027	0.410659	0.282567	1.29005	0	0	-0.218228	-0.178286	-0.494933	0.413213	0.965689	0	0
2.15	0.256897	1.35885	1.36603	0.802619	1.83582	1.01173	0.493834	0.0680835	-0.10581	0.125747	-0.298022	0	0	-0.0369519	-0.140909	-0.36225	0.489641	-0.113185	0	0	0.120408	0.0672859	-0.0155834	-0.206706	-0.301822	0.422019	0.279994	1.25706	0	0	-0.227292	-0.178012	-0.493059	0.411224	0.957741	0	0
2.16	0.271	1.35199	1.35424	0.803711	1.85039	1.01138	0.493766	0.0745961	-0.113107	0.133722	-0.305971	0	0	-0.0177414	-0.152467	-0.340363	0.540096	-0.135303	0	0	0.136182	0.0741894	-0.0180636	-0.213187	-0.306159	0.40501	0.279547	1.24587	0	0	-0.233077	-0.175869	-0.500746	0.406746	0.964303	0	0
2.17	0.285362	1.34166	1.34081	0.804967	1.86444	1.01103	0.500191	0.0819832	-0.119258	0.154002	-0.293811	0	0	0.00817165	-0.164105	-0.311466	0.593954	-0.160907	0	0	0.154769	0.0823705	-0.0190447	-0.218895	-0.310756	0.388727	0.279219	1.23305	0	0	-0.238202	-0.173328	-0.507067	0.402012	0.970795	0	0
2.18	0.312834	1.33598	1.31186	0.806061	1.87761	1.01079	0.50536	0.0912401	-0.120228	0.188309	-0.264401	0	0	0.0309259	-0.176555	-0.276447	0.650608	-0.191895	0	0	0.126304	0.0935465	-0.00155397	-0.22194	-0.317181	0.331449	0.301556	1.2292	0	0	-0.232374	-0.17904	-0.447973	0.420283	0.91815	0	0
2.19	0.305462	1.31284	1.31793	0.807091	1.89076	1.01041	0.531199	0.0965239	-0.111174	0.226133	-0.239589	0	0	0.0773578	-0.179898	-0.224397	0.705892	-0.227432	0	0	0.198269	0.101112	-0.0161562	-0.228035	-0.323118	0.360418	0.280602	1.2052	0	0	-0.241813	-0.1602	-0.55253	0.389602	1.01779	0	0
2.2	0.318303	1.30133	1.30363	0.807926	1.90313	1.01039	0.544202	0.103865	-0.102723	0.262782	-0.218594	0	0	0.113117	-0.186311	-0.180615	0.764885	-0.261531	0	0	0.210959	0.110974	-0.0138633	-0.229171	-0.33085	0.345663	0.28485	1.19813	0	0	-0.244643	-0.156423	-0.549133	0.390141	1.01834	0	0
2.21	0.334841	1.29468	1.28745	0.808535	1.91526	1.01071	0.550033	0.109905	-0.102423	0.293201	-0.201645	0	0	0.144906	-0.192668	-0.141775	0.822011	-0.29477	0	0	0.215942	0.119808	-0.0127455	-0.228146	-0.339138	0.333235	0.291235	1.19325	0	0	-0.246881	-0.152237	-0.545283	0.394904	1.01634	0	0
2.22	0.356777	1.29351	1.2682	0.808872	1.92733	1.01147	0.546736	0.114623	-0.112202	0.31547	-0.188084	0	0	0.171703	-0.199387	-0.108117	0.876236	-0.3333	0	0	0.212987	0.12766	-0.0133564	-0.225173	-0.347859	0.322589	0.299585	1.18869	0	0	-0.248467	-0.148457	-0.539337	0.402395	1.01278	0	0
2.23	0.383391	1.29621	1.24749	0.808982	1.93921	1.01263	0.535346	0.118338	-0.127056	0.327966	-0.177659	0	0	0.19631	-0.206373	-0.0764491	0.928464	-0.376098	0	0	0.204834	0.134259	-0.0165265	-0.220341	-0.356466	0.314868	0.308874	1.18431	0	0	-0.248706	-0.14538	-0.532111	0.41071	1.00552	0	0
